<?xml version="1.0" encoding="UTF-8" standalone="no"?>
<!-- Created with Inkscape (http://www.inkscape.org/) -->

<svg
   xmlns:dc="http://purl.org/dc/elements/1.1/"
   xmlns:cc="http://creativecommons.org/ns#"
   xmlns:rdf="http://www.w3.org/1999/02/22-rdf-syntax-ns#"
   xmlns:svg="http://www.w3.org/2000/svg"
   xmlns="http://www.w3.org/2000/svg"
   xmlns:sodipodi="http://sodipodi.sourceforge.net/DTD/sodipodi-0.dtd"
   xmlns:inkscape="http://www.inkscape.org/namespaces/inkscape"
   width="300cm"
   height="200cm"
   viewBox="0 0 10629.921 7086.6144"
   id="svg2"
   version="1.1"
   inkscape:version="0.91 r13725"
   sodipodi:docname="2015-06-10-cmiller-d.svg">
  <defs
     id="defs4">
    <clipPath
       clipPathUnits="userSpaceOnUse"
       id="clipPath4175">
      <rect
         y="-9615.9717"
         x="-4262.7544"
         height="7086.6143"
         width="10668.019"
         id="rect4177"
         style="opacity:1;fill:#980b00;fill-opacity:1;fill-rule:nonzero;stroke:#7f7f7f;stroke-width:0;stroke-linecap:round;stroke-linejoin:round;stroke-miterlimit:4;stroke-dasharray:none;stroke-dashoffset:0;stroke-opacity:1"
         transform="matrix(0.46084136,0.88748253,-0.84540111,0.53413197,0,0)" />
    </clipPath>
    <clipPath
       clipPathUnits="userSpaceOnUse"
       id="clipPath8112">
      <rect
         y="-6034.252"
         x="0.00036140502"
         height="7086.6143"
         width="10629.921"
         id="rect8114"
         style="opacity:1;fill:#bb0e00;fill-opacity:1;fill-rule:nonzero;stroke:none;stroke-width:0;stroke-linecap:round;stroke-linejoin:round;stroke-miterlimit:4;stroke-dasharray:none;stroke-dashoffset:0;stroke-opacity:1" />
    </clipPath>
  </defs>
  <sodipodi:namedview
     id="base"
     pagecolor="#ffffff"
     bordercolor="#666666"
     borderopacity="1.0"
     inkscape:pageopacity="0.0"
     inkscape:pageshadow="2"
     inkscape:zoom="0.028284271"
     inkscape:cx="-8420.4692"
     inkscape:cy="4869.1533"
     inkscape:document-units="px"
     inkscape:current-layer="layer1"
     showgrid="false"
     units="m"
     inkscape:snap-bbox="true"
     inkscape:snap-object-midpoints="true"
     inkscape:snap-center="true"
     inkscape:snap-page="true"
     showguides="true"
     inkscape:guide-bbox="true"
     inkscape:window-width="1920"
     inkscape:window-height="1029"
     inkscape:window-x="0"
     inkscape:window-y="24"
     inkscape:window-maximized="1"
     inkscape:showpageshadow="false"
     borderlayer="true"
     inkscape:snap-global="true"
     inkscape:bbox-nodes="true"
     inkscape:bbox-paths="true" />
  <metadata
     id="metadata7">
    <rdf:RDF>
      <cc:Work
         rdf:about="">
        <dc:format>image/svg+xml</dc:format>
        <dc:type
           rdf:resource="http://purl.org/dc/dcmitype/StillImage" />
        <dc:title></dc:title>
      </cc:Work>
    </rdf:RDF>
  </metadata>
  <g
     inkscape:label="Layer 1"
     inkscape:groupmode="layer"
     id="layer1"
     transform="translate(0,6034.252)">
    <rect
       style="opacity:1;fill:#bb0e00;fill-opacity:1;fill-rule:nonzero;stroke:none;stroke-width:0;stroke-linecap:round;stroke-linejoin:round;stroke-miterlimit:4;stroke-dasharray:none;stroke-dashoffset:0;stroke-opacity:1"
       id="rect4136"
       width="10629.921"
       height="7086.6143"
       x="0.00036140502"
       y="-6034.252" />
    <path
       sodipodi:type="star"
       style="opacity:1;fill:#d6c500;fill-opacity:1;fill-rule:nonzero;stroke:#f0dd00;stroke-width:609.4488189;stroke-linecap:round;stroke-linejoin:round;stroke-miterlimit:4;stroke-dasharray:none;stroke-dashoffset:0;stroke-opacity:1"
       id="path4179"
       sodipodi:sides="32"
       sodipodi:cx="0"
       sodipodi:cy="-6034.252"
       sodipodi:r1="3.1459153e-05"
       sodipodi:r2="14615.982"
       sodipodi:arg1="-1.5707963"
       sodipodi:arg2="-2.1523804e-09"
       inkscape:flatsided="false"
       inkscape:rounded="-3.469447e-18"
       inkscape:randomized="0"
       d="m 0,-6034.252 14615.982,0 L 6.137377e-6,-6034.252 14335.14,-3182.8153 1.2038897e-5,-6034.252 13503.407,-440.95766 1.7477769e-5,-6034.252 12152.745,2085.9528 2.2244981e-5,-6034.252 10335.06,4300.8083 2.615733e-5,-6034.252 8120.2048,6118.4933 2.9064467e-5,-6034.252 5593.2943,7469.155 3.0854674e-5,-6034.252 2851.4367,8300.8885 3.1459153e-5,-6034.252 l 3e-12,14615.9825 L 3.0854674e-5,-6034.2519 -2851.4367,8300.8885 2.9064467e-5,-6034.2519 -5593.2943,7469.1551 2.6157329e-5,-6034.2519 -8120.2047,6118.4933 2.2244979e-5,-6034.2519 -10335.06,4300.8084 1.7477768e-5,-6034.2519 -12152.745,2085.9528 1.2038896e-5,-6034.2519 -13503.407,-440.9576 6.1373754e-6,-6034.2519 -14335.14,-3182.8152 0,-6034.2519 l -14615.982,0 14615.9819938626224,0 L -14335.14,-8885.6886 -1.2038897e-5,-6034.2519 -13503.407,-11627.546 -1.7477769e-5,-6034.2519 -12152.745,-14154.457 -2.2244981e-5,-6034.2519 -10335.06,-16369.312 -2.615733e-5,-6034.2519 -8120.2048,-18186.997 -2.9064467e-5,-6034.2519 -5593.2943,-19537.659 -3.0854674e-5,-6034.2519 -2851.4367,-20369.392 -3.1459153e-5,-6034.252 l -5e-12,-14615.982 6.04484e-7,14615.982 L 2851.4367,-20369.392 -2.9064467e-5,-6034.252 5593.2943,-19537.659 -2.6157329e-5,-6034.252 8120.2047,-18186.997 -2.2244979e-5,-6034.252 10335.06,-16369.312 -1.7477768e-5,-6034.252 12152.745,-14154.457 -1.2038896e-5,-6034.252 13503.407,-11627.546 -6.1373754e-6,-6034.252 14335.14,-8885.6887 Z"
       inkscape:transform-center-x="55.746311"
       inkscape:transform-center-y="-83.326618"
       clip-path="url(#clipPath8112)" />
  </g>
</svg>
