<?xml version="1.0" encoding="UTF-8" standalone="no"?>
<svg
   xmlns:dc="http://purl.org/dc/elements/1.1/"
   xmlns:cc="http://creativecommons.org/ns#"
   xmlns:rdf="http://www.w3.org/1999/02/22-rdf-syntax-ns#"
   xmlns:svg="http://www.w3.org/2000/svg"
   xmlns="http://www.w3.org/2000/svg"
   version="1.1"
   id="svg2"
   viewBox="0 0 10629.921 7086.6144"
   height="200cm"
   width="300cm">
  <defs
     id="defs4" />
  <metadata
     id="metadata7">
    <rdf:RDF>
      <cc:Work
         rdf:about="">
        <dc:format>image/svg+xml</dc:format>
        <dc:type
           rdf:resource="http://purl.org/dc/dcmitype/StillImage" />
        <dc:title></dc:title>
      </cc:Work>
    </rdf:RDF>
  </metadata>
  <g
     transform="translate(0,6034.252)"
     id="layer1">
    <rect
       y="-6034.252"
       x="0"
       height="7086.6143"
       width="10629.921"
       id="rect4142"
       style="opacity:1;fill:#003aab;fill-opacity:1;fill-rule:nonzero;stroke:#ffffff;stroke-width:10;stroke-linecap:round;stroke-linejoin:round;stroke-miterlimit:4;stroke-dasharray:none;stroke-dashoffset:0;stroke-opacity:1" />
  </g>
  <g
     style="display:none"
     id="layer3">
    <rect
       y="-8.458415e-05"
       x="2657.4802"
       height="7086.6143"
       width="5314.9604"
       id="rect4200"
       style="opacity:1;fill:#007f00;fill-opacity:1;fill-rule:nonzero;stroke:none;stroke-width:35.43307114;stroke-linecap:round;stroke-linejoin:round;stroke-miterlimit:4;stroke-dasharray:none;stroke-dashoffset:0;stroke-opacity:1" />
    <path
       style="display:inline;opacity:1;fill:#ffe500;fill-opacity:1;fill-rule:nonzero;stroke:none;stroke-width:35.43307114;stroke-linecap:round;stroke-linejoin:round;stroke-miterlimit:4;stroke-dasharray:none;stroke-dashoffset:0;stroke-opacity:1"
       id="path4202"
       d="m 6014.6079,-3682.5586 548.719,196.8507 -448.3003,372.6521 293.81,503.5061 -582.9541,-2.6938 -98.5761,574.5655 -444.8372,-376.7792 -444.8371,376.7792 -98.5761,-574.5655 -582.9541,2.6938 293.8099,-503.5061 -448.3002,-372.6521 548.7189,-196.8507 -103.8817,-573.6299 546.8763,201.9133 289.1441,-506.1999 289.1442,506.1999 546.8763,-201.9133 z"
       transform="matrix(-1.2156785,-0.7018723,0.7018723,-1.2156785,14043.382,3290.5439)" />
  </g>
  <g
     style="display:inline"
     id="layer2">
    <path
       id="rect4144"
       d="m 5,-3 7086.6143,0 0,7086.6143 z"
       style="display:inline;opacity:1;fill:#088600;fill-opacity:1;fill-rule:nonzero;stroke:none;stroke-width:10;stroke-linecap:round;stroke-linejoin:round;stroke-miterlimit:4;stroke-dasharray:none;stroke-dashoffset:0;stroke-opacity:1" />
    <path
       transform="matrix(-0.8660254,-0.5,0.5,-0.8660254,11576.436,2725.0027)"
       d="m 6014.6079,-3682.5586 548.719,196.8507 -448.3003,372.6521 293.81,503.5061 -582.9541,-2.6938 -98.5761,574.5655 -444.8372,-376.7792 -444.8371,376.7792 -98.5761,-574.5655 -582.9541,2.6938 293.8099,-503.5061 -448.3002,-372.6521 548.7189,-196.8507 -103.8817,-573.6299 546.8763,201.9133 289.1441,-506.1999 289.1442,506.1999 546.8763,-201.9133 z"
       id="path4153"
       style="opacity:1;fill:#f4ea00;fill-opacity:1;fill-rule:nonzero;stroke:none;stroke-width:35.43307114;stroke-linecap:round;stroke-linejoin:round;stroke-miterlimit:4;stroke-dasharray:none;stroke-dashoffset:0;stroke-opacity:1" />
  </g>
</svg>
