<?xml version="1.0" encoding="utf-8"?>
<!-- Generator: Adobe Illustrator 17.1.0, SVG Export Plug-In . SVG Version: 6.00 Build 0)  -->
<!DOCTYPE svg PUBLIC "-//W3C//DTD SVG 1.1//EN" "http://www.w3.org/Graphics/SVG/1.1/DTD/svg11.dtd">
<svg version="1.1" xmlns="http://www.w3.org/2000/svg" xmlns:xlink="http://www.w3.org/1999/xlink" x="0px" y="0px"
	 viewBox="0 0 360 216" enable-background="new 0 0 360 216" xml:space="preserve">
<g id="Layer_1" display="none">
</g>
<g id="Layer_5">
	<polygon fill="#4EC3CA" points="135.6,39.5 99,22.8 139,-85 201.5,-70.5 	"/>
	<polygon fill="#4EC3CA" points="69.9,22.8 34.5,27 -3,-55 54.5,-78 	"/>
	<polygon fill="#4EC3CA" points="22,35.4 0.4,48 -62.5,-47.5 -32.8,-58 19.5,34.4 	"/>
	<g>
		<g>
			<path fill="#4FC3C9" d="M277.9,100.3l101.6-4.9V40l-56.6,15.2c0.1,0.2,0.2,0.3,0.2,0.3s0.6,1.7-6.2,5.6c-3.4,2-7.3,3.4-7.3,3.4
				s9.1-0.6,10.4,9c1.9,14.6-16,21.9-16,21.9s10-7,5.6-20.2c-3.8-11.3-30.4-7.1-30.4-7.1s1.1-0.7,2.7-1.9l-66,17.7
				c0.7,3.8-2.7,6.2-2.7,6.2s2,0.4,4.3,0.7c5.2,0.7,5.3,2.3,5.3,2.3s0.2,1.1-4.3,2.7c-2.2,0.8-4.8,1.2-4.8,1.2s5.3,0.6,5.2,6.2
				l52.6-2.5c-1.9-1-3.5-1.5-3.5-1.5S272.8,99,277.9,100.3z"/>
		</g>
		<g>
			<path fill="#4FC3C9" d="M195,95.7c0,0,10.2-4.1,13-9.8l-31.5,8.4l4.6,10.6l31.2-1.5c0-0.1,0-0.1,0-0.1
				C211.3,96.2,195,95.7,195,95.7z"/>
		</g>
		<g>
			<path fill="#4FC3C9" d="M185.5,140.7V156l214,49l-9.5-76.5l-96.3,4.7c0.1,0.4,0.1,0.8,0.1,1.3c0.2,11.8-15,15.8-15,15.8
				s8.7-4.6,6.4-15.5c-0.1-0.4-0.2-0.8-0.4-1.1l-99.4,4.9V140.7z"/>
		</g>
		<g>
			<path fill="#4FC3C9" d="M238,36.8c-4-10.1-13.4-9.1-13.4-9.1s14.4-5,20.5,4.7c0.7,1.1,1.1,2.2,1.3,3.1L348-13l-79.5-42.5
				l-93.4,89.8c1.5,0.3,3,1.2,4.4,3.3c5.3,8.6-3.5,18.3-3.5,18.3s4-7.3-2.3-14.3c-1.1-1.2-2.6-1.8-4.3-1.9L152.5,56L169,72.5
				l69.4-33.1C238.4,38.5,238.3,37.6,238,36.8z"/>
		</g>
		<g>
			<path fill="#4FC3C9" d="M206.8,114.8c0,0,11.5-2.4,12-11.3c0-0.1,0-0.2,0-0.3l-6.4,0.3C213.4,111.7,206.8,114.8,206.8,114.8z"/>
		</g>
		<g>
			<path fill="#4FC3C9" d="M214.7,81.2c-3.4-5.2-13.6-5.5-13.6-5.5s8.5,3.5,7.6,8.4c-0.1,0.6-0.3,1.2-0.6,1.8l7.7-2.1
				C215.6,83,215.3,82.2,214.7,81.2z"/>
		</g>
		<g>
			<path fill="#4FC3C9" d="M170.6,34.9c0,0,2-2,3.4-4.2c3-4.4,2.1-5.3,2.1-5.3s-1.1-1.5-6.1,1.3c-2.2,1.2-4.2,2.1-4.2,2.1
				s2.1-6.6-4.2-9.4c-6.3-2.7-15.6,3.7-15.6,3.7s9.8-2.2,12.1,2.9c3.1,7-4.8,19.8-4.8,19.8s9.4-6.5,16-6l5.7-5.5
				C172.7,33.8,170.6,34.9,170.6,34.9z"/>
		</g>
		<g>
			<path fill="#4FC3C9" d="M223.3,56.7c0,0,17.1-2.6,22.7,4c4.1,4.8-3.2,14.3-3.2,14.3s11.2-7,11.7-15.1s-7.4-8.8-7.4-8.8
				s2-1.8,4.3-3.6c5.4-4.2,4.4-6,4.4-6s-0.5-1.3-6.5-0.2c-3,0.6-6.1,1.8-6.1,1.8s3.9-3,3-7.5l-8,3.8
				C238.1,47.5,223.3,56.7,223.3,56.7z"/>
		</g>
		<g>
			<path fill="#4FC3C9" d="M286.3,126.3c0,0,3.3-0.7,6.2-2c5.8-2.4,5.5-3.9,5.5-3.9s-0.3-2.1-7.2-2.6c-3-0.2-5.8-0.6-5.8-0.6
				s6.3-5.2,1.4-11.8c-2-2.6-5.3-4.2-8.6-5.1l-6.5,0.3c3.4,1.7,7.8,4.9,7.3,9c-1.1,8.8-17.2,16.4-17.2,16.4s20.1-0.5,23.4,7.7
				l8.8-0.4C292.9,126.7,286.3,126.3,286.3,126.3z"/>
		</g>
		<g>
			<path fill="#4FC3C9" d="M313.8,53.3c-3.8,0.2-7.1,0.2-7.1,0.2s7-7.4,0-14.9S283,33.7,283,33.7s14.8,3.1,14.8,11.3
				c-0.1,8.4-10.8,17.3-16,21.1l41.1-11C322.4,54.5,320.6,53,313.8,53.3z"/>
		</g>
	</g>
	<polygon fill="#4EC3CA" points="175.6,178.5 166.5,195 289.5,270.8 368,239.5 	"/>
</g>
<g id="Layer_3">
	<circle fill="#8DC63F" stroke="#FFFFFF" stroke-width="6" stroke-miterlimit="10" cx="73.3" cy="135.7" r="113.3"/>
	<path fill="#4FC3C9" stroke="#FFFFFF" stroke-width="6" stroke-miterlimit="10" d="M107.9,179.4c-53.6,2.7-103.3-1.7-143.2-11.2
		c13.8,46.4,56.6,80.4,107.5,80.9c50.6,0.5,93.8-32.2,108.8-77.8C158.1,175.3,133.5,178.1,107.9,179.4z"/>
</g>
<g id="Layer_4" display="none">
	<polygon display="inline" fill="#F15A29" stroke="#FFFFFF" stroke-width="6" stroke-miterlimit="10" points="28.9,32.4 8.1,18.2 
		1.5,-19 27.8,7.4 	"/>
	<polygon display="inline" fill="#F15A29" stroke="#FFFFFF" stroke-width="6" stroke-miterlimit="10" points="83.7,18.2 68.9,-4.9 
		81.1,-62.5 95.3,-8.5 	"/>
	<polygon display="inline" fill="#F15A29" stroke="#FFFFFF" stroke-width="6" stroke-miterlimit="10" points="149.3,33.3 143.3,7.2 
		174.5,-36.8 173.1,12.1 	"/>
	<polygon display="inline" fill="#F15A29" stroke="#FFFFFF" stroke-width="6" stroke-miterlimit="10" points="193.7,72.8 
		201.3,54.4 240.5,38.1 215,72 	"/>
	<polygon display="inline" fill="#F15A29" stroke="#FFFFFF" stroke-width="5" stroke-miterlimit="10" points="203.1,123.8 
		231.8,112.5 300.8,134.1 231.6,141.7 	"/>
	<polygon display="inline" fill="#F15A29" stroke="#FFFFFF" stroke-width="6" stroke-miterlimit="10" points="192.2,199.1 
		230.5,208.5 268.7,260.7 213.7,235.6 	"/>
	<polygon display="inline" fill="#F15A29" stroke="#FFFFFF" stroke-width="6" stroke-miterlimit="10" points="201.9,165.5 
		225.5,158.6 259.1,176.4 222,180.3 	"/>
</g>
<g id="Layer_2">
	<path fill="#FFFFFF" d="M-2.1,174.5c0,0,32.1,7.8,68.4,8.9c37.4,1.2,75.7-7.4,75.7-7.4l-21.8-98.9l-88.9,8.7L-2.1,174.5z"/>
	<path fill="#8DC63F" d="M47.5,131.8c1.4-10.8,11.2-19.1,23.1-19c11.8,0.1,21.5,8.6,22.7,19.5c22.5,6.8,40.5,23.1,48.7,43.8
		c8.8-13.3,14-29.2,14.2-46.4c0.5-47.4-37.5-86.1-84.9-86.6s-86.1,37.5-86.6,84.9c-0.2,17.1,4.7,33.2,13.2,46.6
		C6.6,154,24.9,138.1,47.5,131.8z"/>
	<path fill="#FFFFFF" d="M65.9,125.9c0,0,5.2-71,0.8-73.6c-4.4-2.6-13.9,1.2-13.9,1.2s3-6.5,5.4-7.3c1.1-0.4-2-2.3-6.3-2.1
		c-4.6,0.2-10.3,2.5-10.3,2.5s12.4-16.2,24-3.3c5,5.6,4.3-14.2,19.5,0.2c4.3,4.1,10.1-6.6,10.8,9.1c0,0-19.9-11.7-21.3,4
		c-1.3,14.5,1.1,69.4,1.1,69.4"/>
	<path fill="#FFFFFF" d="M105.1,96c0,0,19.3-8.2,24.8-1.8c6.5,7.5,0.6,14,0.6,14s11.9-8.4,7-17.2c-3.2-5.8-10-3.5-10-3.5
		s2.6-1.7,4.8-3.7c4.2-3.9,3.3-4.9,3.3-4.9s-1.1-1.5-7.5,0.6c-2.8,0.9-5.4,1.6-5.4,1.6s3.6-6.2-3.6-9.4c-7.1-3.3-19.1,1.8-19.1,1.8
		s12-1.1,13.9,4.1C116.4,84.6,105.1,96,105.1,96z"/>
</g>
</svg>
