<?xml version="1.0" encoding="UTF-8" standalone="no"?>
<!-- Created with Inkscape (http://www.inkscape.org/) -->

<svg
   xmlns:dc="http://purl.org/dc/elements/1.1/"
   xmlns:cc="http://creativecommons.org/ns#"
   xmlns:rdf="http://www.w3.org/1999/02/22-rdf-syntax-ns#"
   xmlns:svg="http://www.w3.org/2000/svg"
   xmlns="http://www.w3.org/2000/svg"
   xmlns:sodipodi="http://sodipodi.sourceforge.net/DTD/sodipodi-0.dtd"
   xmlns:inkscape="http://www.inkscape.org/namespaces/inkscape"
   id="svg4206"
   version="1.1"
   inkscape:version="0.91 r13725"
   width="1309.0909"
   height="1264.9091"
   viewBox="0 0 1309.0909 1264.9091"
   sodipodi:docname="chad-orlando-peninsula.svg">
  <metadata
     id="metadata4212">
    <rdf:RDF>
      <cc:Work
         rdf:about="">
        <dc:format>image/svg+xml</dc:format>
        <dc:type
           rdf:resource="http://purl.org/dc/dcmitype/StillImage" />
        <dc:title></dc:title>
      </cc:Work>
    </rdf:RDF>
  </metadata>
  <defs
     id="defs4210" />
  <sodipodi:namedview
     pagecolor="#ffffff"
     bordercolor="#666666"
     borderopacity="1"
     objecttolerance="10"
     gridtolerance="10"
     guidetolerance="10"
     inkscape:pageopacity="0"
     inkscape:pageshadow="2"
     inkscape:window-width="2479"
     inkscape:window-height="1570"
     id="namedview4208"
     showgrid="false"
     inkscape:zoom="0.7753578"
     inkscape:cx="739.25784"
     inkscape:cy="595.06515"
     inkscape:window-x="81"
     inkscape:window-y="30"
     inkscape:window-maximized="1"
     inkscape:current-layer="svg4206" />
  <path
     style="fill:#007f00;fill-opacity:1;fill-rule:evenodd;stroke:#000000;stroke-width:17.85000038;stroke-linecap:butt;stroke-linejoin:miter;stroke-miterlimit:4;stroke-dasharray:none;stroke-opacity:1"
     d="m 61.102312,3.6478992 c 27.233474,8.2064478 2.789137,44.4172458 42.172708,31.0148088 42.0405,22.727226 78.58874,66.654972 131.97705,61.50495 1.2892,42.684792 13.9228,78.532802 62.51522,85.079822 45.91182,37.51722 118.31046,57.88302 130.17701,124.6151 11.7577,56.52968 26.60363,114.44887 15.41669,172.6649 -11.64985,56.89333 54.044,122.45548 71.19457,50.94026 68.72306,-24.68639 5.13793,80.15295 -19.35324,104.35475 15.00088,48.95504 59.31572,97.36558 109.13583,119.31386 18.05969,8.68336 28.69849,20.91713 23.10052,-3.49306 26.91759,-3.44119 66.01887,-25.77454 44.68676,18.2395 5.77817,27.64285 23.83554,66.30245 42.28002,83.469 43.3189,-33.3324 -11.82851,65.00096 31.58994,80.68646 48.68469,34.42116 96.8042,71.87175 158.27744,79.51995 62.72297,-11.76732 56.30556,44.4644 62.91414,84.2204 33.92583,15.8717 -27.68486,39.472 1.97708,66.94 -5.59853,6.3137 -69.50454,9.3508 -30.35395,39.8658 61.8215,-2.4393 135.8841,23.7699 168.0956,-45.2729 50.6803,-30.1236 94.936,-75.8876 85.8559,-134.9742 18.5154,-53.87417 24.7781,-112.85713 20.2533,-169.71324 -3.8573,-18.70441 -17.4556,-50.05048 -3.0071,-38.4911 -8.8539,-51.8499 -43.8664,-109.01269 -53.261,-168.2669 -37.2612,-49.17104 -87.4829,-86.7295 -127.9656,-134.79964 C 982.00041,464.89021 959.15158,402.78434 938.23912,350.65224 917.42759,303.01787 916.37036,244.67059 880.23037,205.64235 834.13149,153.68293 799.85957,94.323263 761.87697,36.676513 755.95835,25.125924 750.26823,13.469241 740.52354,4.559874"
     id="path4220"
     inkscape:connector-curvature="0" />
</svg>
